<svg xmlns="http://www.w3.org/2000/svg" version="1.1" xmlns:xlink="http://www.w3.org/1999/xlink" viewBox="0 0 7.7481671974437205 7.447075500005937"><g transform="matrix(0.8546746261674939,0,0,0.8546746261674939,2.360014770157503,3.0209952072932884)"><rect width="9.014437422231191" height="9.014437422231191" x="-2.7357038185374707" y="-3.6852187111155956" fill="#ffffff"></rect><g transform="matrix(1,0,0,1,0,0)"><g clip-path="url(#SvgjsClipPath34913)"><path d=" M -0.9547573802519917 0.8736805275218464 C -1.1418502784772602 0.549627017091328 -1.1418502784772602 0.15037298290867174 -0.954757205691816 -0.1736805275218467 L -0.047716347997601716 -1.7447221100873862 C 0.13937724846836996 -2.068777366119663 0.48513906236642734 -2.2684026376092326 0.8593332377054046 -2.2684026376092326 L 2.673449865129001 -2.2684026376092326 C 3.0476545140785283 -2.2684026376092326 3.393423310383619 -2.0687651469073542 3.5804994508320065 -1.74469592606101 L 4.487496668482262 -0.1736630715042624 C 4.674555352913064 0.15039043892625603 4.674555352913064 0.5496095610737437 4.487496668482262 0.8736630715042621 L 3.5804994508320065 2.444704654069802 C 3.393423310383619 2.7687581645003205 3.0476545140785283 2.9684026376092327 2.673449865129001 2.9684026376092327 L 0.8593332377054046 2.9684026376092327 C 0.48513906236642734 2.9684026376092327 0.13937724846836996 2.768775620517905 -0.047716347997601716 2.4447221100873855 L -0.9547573802519917 0.8736805275218464 Z" fill="#67a97b" transform="matrix(1,0,0,1,0,0)" fill-rule="nonzero"></path></g></g><g transform="matrix(1,0,0,1,0,0)"><path d=" M 0.548 0 Q 0.5700000000000001 0 0.5915 0.016000000000000014 Q 0.613 0.03200000000000003 0.613 0.05900000000000005 Q 0.613 0.07800000000000007 0.599 0.09700000000000009 L 0.216 0.5890000000000001 L 0.20400000000000001 0.5850000000000001 L 0.538 0.5850000000000001 Q 0.5640000000000001 0.5850000000000001 0.5815 0.6005 Q 0.599 0.6160000000000001 0.599 0.642 Q 0.599 0.667 0.5815 0.6835000000000001 Q 0.5640000000000001 0.7000000000000001 0.538 0.7000000000000001 L 0.099 0.7000000000000001 Q 0.073 0.7000000000000001 0.054 0.6815000000000001 Q 0.035 0.663 0.035 0.641 Q 0.035 0.6220000000000001 0.049 0.6030000000000001 L 0.433 0.1090000000000001 L 0.442 0.1150000000000001 L 0.139 0.1150000000000001 Q 0.113 0.1150000000000001 0.0955 0.09900000000000009 Q 0.078 0.08300000000000007 0.078 0.05700000000000005 Q 0.078 0.031000000000000028 0.0955 0.01550000000000007 Q 0.113 0 0.139 0 L 0.548 0 M 0.95500537109375 0.7100000000000001 Q 0.87000537109375 0.7100000000000001 0.80750537109375 0.6745000000000001 Q 0.74500537109375 0.639 0.71150537109375 0.5780000000000001 Q 0.67800537109375 0.5170000000000001 0.67800537109375 0.44000000000000006 Q 0.67800537109375 0.35000000000000003 0.71450537109375 0.28650000000000003 Q 0.75100537109375 0.22300000000000003 0.81000537109375 0.18900000000000006 Q 0.86900537109375 0.15500000000000003 0.93500537109375 0.15500000000000003 Q 0.98600537109375 0.15500000000000003 1.03150537109375 0.17600000000000005 Q 1.07700537109375 0.19700000000000006 1.11200537109375 0.23350000000000004 Q 1.14700537109375 0.2700000000000001 1.16750537109375 0.31800000000000006 Q 1.18800537109375 0.36600000000000005 1.18800537109375 0.42000000000000004 Q 1.18700537109375 0.44400000000000006 1.16900537109375 0.4590000000000001 Q 1.15100537109375 0.4740000000000001 1.12700537109375 0.4740000000000001 L 0.74500537109375 0.4740000000000001 L 0.7150053710937501 0.37400000000000005 L 1.08200537109375 0.37400000000000005 L 1.06000537109375 0.3940000000000001 L 1.06000537109375 0.36700000000000005 Q 1.05800537109375 0.3380000000000001 1.03950537109375 0.31500000000000006 Q 1.0210053710937501 0.29200000000000004 0.99350537109375 0.2785000000000001 Q 0.96600537109375 0.26500000000000007 0.93500537109375 0.26500000000000007 Q 0.90500537109375 0.26500000000000007 0.87900537109375 0.2730000000000001 Q 0.85300537109375 0.2810000000000001 0.8340053710937501 0.30000000000000004 Q 0.81500537109375 0.31900000000000006 0.80400537109375 0.35100000000000003 Q 0.79300537109375 0.38300000000000006 0.79300537109375 0.43200000000000005 Q 0.79300537109375 0.4860000000000001 0.81550537109375 0.5235000000000001 Q 0.8380053710937501 0.561 0.87350537109375 0.5805 Q 0.90900537109375 0.6000000000000001 0.94900537109375 0.6000000000000001 Q 0.98600537109375 0.6000000000000001 1.00800537109375 0.5940000000000001 Q 1.03000537109375 0.5880000000000001 1.04350537109375 0.5795000000000001 Q 1.0570053710937501 0.5710000000000001 1.06800537109375 0.5650000000000001 Q 1.08600537109375 0.556 1.10200537109375 0.556 Q 1.1240053710937499 0.556 1.13850537109375 0.5710000000000001 Q 1.15300537109375 0.5860000000000001 1.15300537109375 0.6060000000000001 Q 1.15300537109375 0.633 1.12500537109375 0.655 Q 1.09900537109375 0.677 1.05200537109375 0.6935000000000001 Q 1.00500537109375 0.7100000000000001 0.95500537109375 0.7100000000000001 M 1.5740224609375 0.15500000000000003 Q 1.6480224609375 0.15500000000000003 1.6865224609375 0.18600000000000005 Q 1.7250224609375 0.21700000000000008 1.7395224609375 0.26850000000000007 Q 1.7540224609375001 0.32000000000000006 1.7540224609375001 0.38300000000000006 L 1.7540224609375001 0.639 Q 1.7540224609375001 0.665 1.7370224609375 0.6825000000000001 Q 1.7200224609374999 0.7000000000000001 1.6940224609375 0.7000000000000001 Q 1.6680224609375 0.7000000000000001 1.6510224609375 0.6825000000000001 Q 1.6340224609375 0.665 1.6340224609375 0.639 L 1.6340224609375 0.38300000000000006 Q 1.6340224609375 0.35000000000000003 1.6255224609375 0.32350000000000007 Q 1.6170224609375001 0.29700000000000004 1.5950224609374999 0.2810000000000001 Q 1.5730224609375 0.26500000000000007 1.5320224609375 0.26500000000000007 Q 1.4920224609375001 0.26500000000000007 1.4645224609375 0.2810000000000001 Q 1.4370224609375 0.29700000000000004 1.4225224609375 0.32350000000000007 Q 1.4080224609375 0.35000000000000003 1.4080224609375 0.38300000000000006 L 1.4080224609375 0.639 Q 1.4080224609375 0.665 1.3910224609375 0.6825000000000001 Q 1.3740224609375 0.7000000000000001 1.3480224609375 0.7000000000000001 Q 1.3220224609375 0.7000000000000001 1.3050224609375 0.6825000000000001 Q 1.2880224609375 0.665 1.2880224609375 0.639 L 1.2880224609375 0.22600000000000003 Q 1.2880224609375 0.20000000000000007 1.3050224609375 0.1825000000000001 Q 1.3220224609375 0.16500000000000004 1.3480224609375 0.16500000000000004 Q 1.3740224609375 0.16500000000000004 1.3910224609375 0.1825000000000001 Q 1.4080224609375 0.20000000000000007 1.4080224609375 0.22600000000000003 L 1.4080224609375 0.2690000000000001 L 1.3930224609375 0.26600000000000007 Q 1.4020224609375 0.24900000000000005 1.4190224609375 0.22950000000000004 Q 1.4360224609375 0.21000000000000008 1.4590224609375 0.19300000000000006 Q 1.4820224609375 0.17600000000000005 1.5110224609375 0.1655000000000001 Q 1.5400224609375 0.15500000000000003 1.5740224609375 0.15500000000000003 M 1.90302587890625 0.16500000000000004 Q 1.92202587890625 0.16500000000000004 1.93802587890625 0.1745000000000001 Q 1.9540258789062501 0.18400000000000005 1.96202587890625 0.20300000000000007 L 2.10902587890625 0.539 L 2.08702587890625 0.549 L 2.23702587890625 0.20400000000000007 Q 2.25402587890625 0.16400000000000003 2.29002587890625 0.16600000000000004 Q 2.31502587890625 0.16600000000000004 2.3305258789062497 0.1815000000000001 Q 2.34602587890625 0.19700000000000006 2.34602587890625 0.22000000000000008 Q 2.34602587890625 0.22700000000000004 2.34352587890625 0.23500000000000004 Q 2.34102587890625 0.24300000000000005 2.33802587890625 0.25000000000000006 L 2.15102587890625 0.662 Q 2.13502587890625 0.6980000000000001 2.10002587890625 0.7000000000000001 Q 2.08102587890625 0.7030000000000001 2.06352587890625 0.6930000000000001 Q 2.04602587890625 0.683 2.03702587890625 0.662 L 1.85102587890625 0.25000000000000006 Q 1.84902587890625 0.24500000000000005 1.84652587890625 0.23700000000000004 Q 1.84402587890625 0.22900000000000004 1.84402587890625 0.21800000000000008 Q 1.84402587890625 0.20000000000000007 1.86002587890625 0.1825000000000001 Q 1.87602587890625 0.16500000000000004 1.90302587890625 0.16500000000000004 M 2.83803759765625 0.16500000000000004 Q 2.86403759765625 0.16500000000000004 2.88103759765625 0.1825000000000001 Q 2.8980375976562502 0.20000000000000007 2.8980375976562502 0.22600000000000003 L 2.8980375976562502 0.4800000000000001 Q 2.8980375976562502 0.5860000000000001 2.83903759765625 0.648 Q 2.78003759765625 0.7100000000000001 2.66903759765625 0.7100000000000001 Q 2.55803759765625 0.7100000000000001 2.49953759765625 0.648 Q 2.44103759765625 0.5860000000000001 2.44103759765625 0.4800000000000001 L 2.44103759765625 0.22600000000000003 Q 2.44103759765625 0.20000000000000007 2.45803759765625 0.1825000000000001 Q 2.47503759765625 0.16500000000000004 2.50103759765625 0.16500000000000004 Q 2.52703759765625 0.16500000000000004 2.54403759765625 0.1825000000000001 Q 2.56103759765625 0.20000000000000007 2.56103759765625 0.22600000000000003 L 2.56103759765625 0.4800000000000001 Q 2.56103759765625 0.541 2.58803759765625 0.5705 Q 2.61503759765625 0.6000000000000001 2.66903759765625 0.6000000000000001 Q 2.72403759765625 0.6000000000000001 2.75103759765625 0.5705 Q 2.77803759765625 0.541 2.77803759765625 0.4800000000000001 L 2.77803759765625 0.22600000000000003 Q 2.77803759765625 0.20000000000000007 2.79503759765625 0.1825000000000001 Q 2.81203759765625 0.16500000000000004 2.83803759765625 0.16500000000000004 M 3.2750126953125 0.7100000000000001 Q 3.1900126953125 0.7100000000000001 3.1275126953125 0.6745000000000001 Q 3.0650126953125 0.639 3.0315126953125002 0.5780000000000001 Q 2.9980126953125 0.5170000000000001 2.9980126953125 0.44000000000000006 Q 2.9980126953125 0.35000000000000003 3.0345126953125 0.28650000000000003 Q 3.0710126953125 0.22300000000000003 3.1300126953125 0.18900000000000006 Q 3.1890126953125 0.15500000000000003 3.2550126953125 0.15500000000000003 Q 3.3060126953125 0.15500000000000003 3.3515126953125 0.17600000000000005 Q 3.3970126953125 0.19700000000000006 3.4320126953125 0.23350000000000004 Q 3.4670126953125 0.2700000000000001 3.4875126953124997 0.31800000000000006 Q 3.5080126953125 0.36600000000000005 3.5080126953125 0.42000000000000004 Q 3.5070126953125 0.44400000000000006 3.4890126953125 0.4590000000000001 Q 3.4710126953125 0.4740000000000001 3.4470126953125 0.4740000000000001 L 3.0650126953125 0.4740000000000001 L 3.0350126953125 0.37400000000000005 L 3.4020126953125 0.37400000000000005 L 3.3800126953125 0.3940000000000001 L 3.3800126953125 0.36700000000000005 Q 3.3780126953125 0.3380000000000001 3.3595126953125 0.31500000000000006 Q 3.3410126953125 0.29200000000000004 3.3135126953125003 0.2785000000000001 Q 3.2860126953125 0.26500000000000007 3.2550126953125 0.26500000000000007 Q 3.2250126953125 0.26500000000000007 3.1990126953125 0.2730000000000001 Q 3.1730126953125 0.2810000000000001 3.1540126953125 0.30000000000000004 Q 3.1350126953125 0.31900000000000006 3.1240126953125 0.35100000000000003 Q 3.1130126953125 0.38300000000000006 3.1130126953125 0.43200000000000005 Q 3.1130126953125 0.4860000000000001 3.1355126953125 0.5235000000000001 Q 3.1580126953125 0.561 3.1935126953125 0.5805 Q 3.2290126953125 0.6000000000000001 3.2690126953125 0.6000000000000001 Q 3.3060126953125 0.6000000000000001 3.3280126953125 0.5940000000000001 Q 3.3500126953125 0.5880000000000001 3.3635126953125 0.5795000000000001 Q 3.3770126953125 0.5710000000000001 3.3880126953125 0.5650000000000001 Q 3.4060126953125 0.556 3.4220126953125 0.556 Q 3.4440126953125 0.556 3.4585126953125 0.5710000000000001 Q 3.4730126953125 0.5860000000000001 3.4730126953125 0.6060000000000001 Q 3.4730126953125 0.633 3.4450126953125 0.655 Q 3.4190126953125 0.677 3.3720126953125 0.6935000000000001 Q 3.3250126953125 0.7100000000000001 3.2750126953125 0.7100000000000001" fill="#ffffff" fill-rule="nonzero"></path></g><g transform="matrix(1,0,0,1,0,0)"><path d=" M -1.2360335937499998 3.4924026376092328 Q -1.1832335937499998 3.4924026376092328 -1.1547335937499998 3.5197026376092326 Q -1.1262335937499999 3.547002637609233 -1.1262335937499999 3.596802637609233 Q -1.1262335937499999 3.6232026376092326 -1.1382335937499999 3.6454026376092328 Q -1.15023359375 3.6676026376092326 -1.1733335937499998 3.680802637609233 Q -1.19643359375 3.6940026376092328 -1.2300335937499998 3.6952026376092326 L -1.2312335937499999 3.6784026376092327 Q -1.21023359375 3.6784026376092327 -1.1880335937499997 3.6844026376092325 Q -1.16583359375 3.6904026376092327 -1.1469335937499998 3.7036026376092326 Q -1.12803359375 3.7168026376092325 -1.1163335937499999 3.7384026376092327 Q -1.1046335937499998 3.7600026376092326 -1.1046335937499998 3.7918026376092326 Q -1.1046335937499998 3.826002637609233 -1.1160335937499999 3.8491026376092328 Q -1.1274335937499997 3.8722026376092327 -1.1463335937499999 3.8863026376092327 Q -1.1652335937499998 3.9004026376092327 -1.18833359375 3.906402637609233 Q -1.2114335937499998 3.9124026376092327 -1.23483359375 3.9124026376092327 L -1.3926335937499998 3.9124026376092327 Q -1.4028335937499998 3.9124026376092327 -1.4097335937499997 3.9052026376092326 Q -1.4166335937499999 3.8980026376092325 -1.4166335937499999 3.8878026376092327 L -1.4166335937499999 3.5164026376092328 Q -1.4166335937499999 3.5062026376092326 -1.4097335937499997 3.4993026376092327 Q -1.4028335937499998 3.4924026376092328 -1.3926335937499998 3.4924026376092328 L -1.2360335937499998 3.4924026376092328 M -1.2432335937499999 3.539802637609233 L -1.3722335937499999 3.539802637609233 L -1.3650335937499998 3.5290026376092327 L -1.3650335937499998 3.6784026376092327 L -1.37163359375 3.6706026376092327 L -1.2420335937499998 3.6706026376092327 Q -1.2156335937499998 3.6706026376092327 -1.1967335937499999 3.6535026376092326 Q -1.17783359375 3.636402637609233 -1.17783359375 3.6028026376092326 Q -1.17783359375 3.572802637609233 -1.1952335937499998 3.5563026376092326 Q -1.21263359375 3.539802637609233 -1.2432335937499999 3.539802637609233 M -1.23843359375 3.7186026376092327 L -1.3692335937499998 3.7186026376092327 L -1.3650335937499998 3.7144026376092327 L -1.3650335937499998 3.871002637609233 L -1.36983359375 3.8656026376092325 L -1.23663359375 3.8656026376092325 Q -1.2012335937499998 3.8656026376092325 -1.1787335937499999 3.8476026376092327 Q -1.15623359375 3.8296026376092325 -1.15623359375 3.7918026376092326 Q -1.15623359375 3.7624026376092328 -1.16823359375 3.7465026376092325 Q -1.18023359375 3.7306026376092327 -1.1991335937499998 3.7246026376092325 Q -1.21803359375 3.7186026376092327 -1.23843359375 3.7186026376092327 M -0.8934104492187499 3.9184026376092325 Q -0.9414104492187498 3.9184026376092325 -0.9774104492187499 3.8980026376092325 Q -1.01341044921875 3.8776026376092325 -1.03321044921875 3.8419026376092327 Q -1.05301044921875 3.806202637609233 -1.05301044921875 3.7594026376092327 Q -1.05301044921875 3.7072026376092326 -1.0323104492187498 3.6703026376092325 Q -1.0116104492187499 3.6334026376092328 -0.9786104492187498 3.6139026376092325 Q -0.9456104492187498 3.5944026376092326 -0.9084104492187499 3.5944026376092326 Q -0.8802104492187499 3.5944026376092326 -0.8547104492187498 3.604602637609233 Q -0.8292104492187499 3.6148026376092326 -0.80911044921875 3.634302637609233 Q -0.78901044921875 3.6538026376092327 -0.77701044921875 3.6811026376092326 Q -0.7650104492187499 3.7084026376092325 -0.7644104492187499 3.742002637609233 Q -0.7650104492187499 3.7516026376092326 -0.7722104492187498 3.758202637609233 Q -0.7794104492187499 3.7648026376092325 -0.78901044921875 3.7648026376092325 L -1.0260104492187498 3.7648026376092325 L -1.0368104492187498 3.7234026376092326 L -0.8058104492187499 3.7234026376092326 L -0.8154104492187499 3.7318026376092326 L -0.8154104492187499 3.7186026376092327 Q -0.81721044921875 3.6940026376092328 -0.8313104492187499 3.6763026376092327 Q -0.8454104492187499 3.6586026376092327 -0.86581044921875 3.649002637609233 Q -0.8862104492187499 3.6394026376092325 -0.9084104492187499 3.6394026376092325 Q -0.9264104492187499 3.6394026376092325 -0.9441104492187499 3.6457026376092325 Q -0.9618104492187499 3.6520026376092325 -0.9759104492187499 3.6661026376092325 Q -0.9900104492187499 3.6802026376092325 -0.9984104492187499 3.7024026376092327 Q -1.00681044921875 3.7246026376092325 -1.00681044921875 3.7558026376092326 Q -1.00681044921875 3.7906026376092328 -0.9927104492187498 3.8170026376092325 Q -0.9786104492187498 3.8434026376092327 -0.9534104492187498 3.8587026376092326 Q -0.9282104492187498 3.8740026376092325 -0.8952104492187498 3.8740026376092325 Q -0.8736104492187499 3.8740026376092325 -0.8580104492187499 3.8686026376092326 Q -0.8424104492187499 3.8632026376092328 -0.8313104492187499 3.8551026376092326 Q -0.8202104492187499 3.847002637609233 -0.8124104492187498 3.838602637609233 Q -0.8046104492187499 3.8332026376092325 -0.7968104492187499 3.8332026376092325 Q -0.7884104492187498 3.8332026376092325 -0.7824104492187499 3.8392026376092327 Q -0.7764104492187499 3.8452026376092325 -0.7764104492187499 3.8536026376092325 Q -0.7764104492187499 3.8638026376092327 -0.7860104492187499 3.8716026376092327 Q -0.8034104492187499 3.8902026376092325 -0.8319104492187499 3.9043026376092325 Q -0.8604104492187499 3.9184026376092325 -0.8934104492187499 3.9184026376092325 M -0.7127949218749999 3.8632026376092328 Q -0.718194921875 3.8554026376092327 -0.717594921875 3.8467026376092326 Q -0.7169949218749999 3.838002637609233 -0.707394921875 3.8314026376092327 Q -0.701394921875 3.8272026376092327 -0.693294921875 3.8278026376092327 Q -0.685194921875 3.8284026376092326 -0.6785949218749999 3.8356026376092327 Q -0.661794921875 3.8554026376092327 -0.6401949218749999 3.8671026376092326 Q -0.618594921875 3.878802637609233 -0.587394921875 3.878802637609233 Q -0.572994921875 3.878202637609233 -0.5585949218749999 3.8740026376092325 Q -0.544194921875 3.8698026376092325 -0.5342949218749999 3.8593026376092325 Q -0.5243949218749999 3.8488026376092326 -0.5243949218749999 3.8314026376092327 Q -0.5243949218749999 3.814602637609233 -0.5345949218749999 3.8047026376092328 Q -0.544794921875 3.7948026376092328 -0.560994921875 3.788502637609233 Q -0.577194921875 3.782202637609233 -0.596394921875 3.777402637609233 Q -0.616194921875 3.7720026376092326 -0.6353949218749999 3.7651026376092327 Q -0.654594921875 3.758202637609233 -0.669894921875 3.747702637609233 Q -0.685194921875 3.737202637609233 -0.694494921875 3.7213026376092326 Q -0.7037949218749999 3.705402637609233 -0.7037949218749999 3.6826026376092327 Q -0.7037949218749999 3.6556026376092325 -0.689094921875 3.635802637609233 Q -0.6743949218749999 3.616002637609233 -0.6494949218749999 3.6052026376092328 Q -0.624594921875 3.5944026376092326 -0.595194921875 3.5944026376092326 Q -0.578394921875 3.5944026376092326 -0.560094921875 3.598302637609233 Q -0.541794921875 3.6022026376092326 -0.5243949218749999 3.6115026376092327 Q -0.506994921875 3.620802637609233 -0.49379492187499996 3.637002637609233 Q -0.488394921875 3.6430026376092326 -0.48779492187499995 3.6520026376092325 Q -0.48719492187499996 3.661002637609233 -0.495594921875 3.668202637609233 Q -0.5021949218749999 3.673002637609233 -0.5102949218749999 3.672402637609233 Q -0.5183949218749999 3.6718026376092325 -0.523794921875 3.6664026376092327 Q -0.5363949218749999 3.6514026376092326 -0.555294921875 3.643302637609233 Q -0.574194921875 3.6352026376092326 -0.5969949218749999 3.6352026376092326 Q -0.611394921875 3.6352026376092326 -0.6251949218749999 3.6394026376092325 Q -0.638994921875 3.6436026376092325 -0.6482949218749999 3.6535026376092326 Q -0.6575949218749999 3.6634026376092326 -0.6575949218749999 3.680802637609233 Q -0.656994921875 3.697002637609233 -0.646794921875 3.7072026376092326 Q -0.636594921875 3.717402637609233 -0.6191949218749999 3.723702637609233 Q -0.6017949218749999 3.730002637609233 -0.5807949218749999 3.7360026376092326 Q -0.5615949218749999 3.7408026376092325 -0.543894921875 3.747102637609233 Q -0.5261949218749999 3.753402637609233 -0.511794921875 3.7636026376092326 Q -0.497394921875 3.773802637609233 -0.488994921875 3.7897026376092326 Q -0.48059492187499997 3.805602637609233 -0.48059492187499997 3.8296026376092325 Q -0.48059492187499997 3.8572026376092325 -0.496194921875 3.8773026376092328 Q -0.511794921875 3.8974026376092326 -0.5372949218749999 3.9079026376092325 Q -0.5627949218749999 3.9184026376092325 -0.592194921875 3.9184026376092325 Q -0.6251949218749999 3.9184026376092325 -0.6572949218749999 3.9058026376092325 Q -0.689394921875 3.8932026376092326 -0.7127949218749999 3.8632026376092328 M -0.4229955078125 3.604002637609233 L -0.2819955078125 3.604002637609233 Q -0.2723955078125 3.604002637609233 -0.2660955078125 3.6106026376092326 Q -0.2597955078125 3.6172026376092328 -0.2597955078125 3.6262026376092327 Q -0.2597955078125 3.635802637609233 -0.2660955078125 3.6421026376092325 Q -0.2723955078125 3.648402637609233 -0.2819955078125 3.648402637609233 L -0.4229955078125 3.648402637609233 Q -0.4319955078125 3.648402637609233 -0.4385955078125 3.6418026376092327 Q -0.4451955078125 3.6352026376092326 -0.4451955078125 3.6256026376092327 Q -0.4451955078125 3.616602637609233 -0.4385955078125 3.610302637609233 Q -0.4319955078125 3.604002637609233 -0.4229955078125 3.604002637609233 M -0.3599955078125 3.5224026376092326 Q -0.3497955078125 3.5224026376092326 -0.34319550781249997 3.529302637609233 Q -0.3365955078125 3.536202637609233 -0.3365955078125 3.5464026376092326 L -0.3365955078125 3.8362026376092326 Q -0.3365955078125 3.850602637609233 -0.3323955078125 3.8578026376092325 Q -0.3281955078125 3.8650026376092326 -0.3212955078125 3.8677026376092325 Q -0.31439550781250003 3.870402637609233 -0.3077955078125 3.870402637609233 Q -0.3017955078125 3.870402637609233 -0.2972955078125 3.868302637609233 Q -0.29279550781249997 3.866202637609233 -0.2867955078125 3.866202637609233 Q -0.2807955078125 3.866202637609233 -0.2756955078125 3.8719026376092325 Q -0.27059550781249997 3.8776026376092325 -0.27059550781249997 3.886602637609233 Q -0.27059550781249997 3.8974026376092326 -0.2831955078125 3.904902637609233 Q -0.29579550781249997 3.9124026376092327 -0.3113955078125 3.9124026376092327 Q -0.3197955078125 3.9124026376092327 -0.33209550781249997 3.911202637609233 Q -0.3443955078125 3.9100026376092325 -0.3563955078125 3.903402637609233 Q -0.36839550781249997 3.8968026376092326 -0.37649550781249996 3.8815026376092328 Q -0.3845955078125 3.866202637609233 -0.3845955078125 3.838602637609233 L -0.3845955078125 3.5464026376092326 Q -0.3845955078125 3.536202637609233 -0.3773955078125 3.529302637609233 Q -0.3701955078125 3.5224026376092326 -0.3599955078125 3.5224026376092326 M 0.11220478515625001 3.9184026376092325 Q 0.06420478515625 3.9184026376092325 0.02820478515625001 3.8980026376092325 Q -0.007795214843749981 3.8776026376092325 -0.02759521484374998 3.8419026376092327 Q -0.04739521484374998 3.806202637609233 -0.04739521484374998 3.7594026376092327 Q -0.04739521484374998 3.7072026376092326 -0.02669521484374998 3.6703026376092325 Q -0.005995214843749985 3.6334026376092328 0.027004785156250016 3.6139026376092325 Q 0.06000478515625002 3.5944026376092326 0.09720478515625 3.5944026376092326 Q 0.12540478515625 3.5944026376092326 0.15090478515625 3.604602637609233 Q 0.17640478515625 3.6148026376092326 0.19650478515624997 3.634302637609233 Q 0.21660478515624998 3.6538026376092327 0.22860478515625 3.6811026376092326 Q 0.24060478515625 3.7084026376092325 0.24120478515625 3.742002637609233 Q 0.24060478515625 3.7516026376092326 0.23340478515625002 3.758202637609233 Q 0.22620478515624998 3.7648026376092325 0.21660478515624998 3.7648026376092325 L -0.02039521484374998 3.7648026376092325 L -0.03119521484374998 3.7234026376092326 L 0.19980478515625 3.7234026376092326 L 0.19020478515625 3.7318026376092326 L 0.19020478515625 3.7186026376092327 Q 0.18840478515624998 3.6940026376092328 0.17430478515625 3.6763026376092327 Q 0.16020478515625 3.6586026376092327 0.13980478515625 3.649002637609233 Q 0.11940478515625 3.6394026376092325 0.09720478515625 3.6394026376092325 Q 0.07920478515625001 3.6394026376092325 0.06150478515625002 3.6457026376092325 Q 0.04380478515625001 3.6520026376092325 0.02970478515625001 3.6661026376092325 Q 0.015604785156250009 3.6802026376092325 0.007204785156250018 3.7024026376092327 Q -0.0011952148437499865 3.7246026376092325 -0.0011952148437499865 3.7558026376092326 Q -0.0011952148437499865 3.7906026376092328 0.012904785156250015 3.8170026376092325 Q 0.027004785156250016 3.8434026376092327 0.052204785156250016 3.8587026376092326 Q 0.07740478515625002 3.8740026376092325 0.11040478515625002 3.8740026376092325 Q 0.13200478515625 3.8740026376092325 0.14760478515625 3.8686026376092326 Q 0.16320478515625 3.8632026376092328 0.17430478515625 3.8551026376092326 Q 0.18540478515624997 3.847002637609233 0.19320478515625 3.838602637609233 Q 0.20100478515624998 3.8332026376092325 0.20880478515625 3.8332026376092325 Q 0.21720478515625002 3.8332026376092325 0.22320478515624997 3.8392026376092327 Q 0.22920478515624998 3.8452026376092325 0.22920478515624998 3.8536026376092325 Q 0.22920478515624998 3.8638026376092327 0.21960478515624998 3.8716026376092327 Q 0.20220478515625 3.8902026376092325 0.17370478515625 3.9043026376092325 Q 0.14520478515625002 3.9184026376092325 0.11220478515625001 3.9184026376092325 M 0.3072173828125 3.596802637609233 Q 0.3144173828125 3.596802637609233 0.3210173828125 3.6007026376092326 Q 0.32761738281249997 3.604602637609233 0.33061738281249997 3.611802637609233 L 0.4302173828125 3.845802637609233 L 0.4206173828125 3.850602637609233 L 0.5220173828125 3.612402637609233 Q 0.5286173828125 3.596202637609233 0.5442173828125 3.596802637609233 Q 0.5532173828125 3.596802637609233 0.5598173828124999 3.6028026376092326 Q 0.5664173828125 3.608802637609233 0.5664173828125 3.6178026376092327 Q 0.5664173828125 3.6214026376092328 0.5655173828125 3.6247026376092326 Q 0.5646173828125 3.6280026376092325 0.5634173828125 3.6304026376092327 L 0.44761738281249996 3.8968026376092326 Q 0.4410173828125 3.9118026376092327 0.42661738281249995 3.9124026376092327 Q 0.4188173828125 3.9130026376092326 0.4119173828125 3.909102637609233 Q 0.4050173828125 3.9052026376092326 0.4020173828125 3.8968026376092326 L 0.2862173828125 3.6310026376092326 Q 0.2850173828125 3.628602637609233 0.2841173828125 3.6256026376092327 Q 0.2832173828125 3.6226026376092326 0.2832173828125 3.6184026376092326 Q 0.2832173828125 3.6106026376092326 0.2895173828125 3.6037026376092327 Q 0.2958173828125 3.596802637609233 0.3072173828125 3.596802637609233 M 0.76860126953125 3.9184026376092325 Q 0.72060126953125 3.9184026376092325 0.68460126953125 3.8980026376092325 Q 0.64860126953125 3.8776026376092325 0.62880126953125 3.8419026376092327 Q 0.60900126953125 3.806202637609233 0.60900126953125 3.7594026376092327 Q 0.60900126953125 3.7072026376092326 0.62970126953125 3.6703026376092325 Q 0.65040126953125 3.6334026376092328 0.68340126953125 3.6139026376092325 Q 0.71640126953125 3.5944026376092326 0.75360126953125 3.5944026376092326 Q 0.78180126953125 3.5944026376092326 0.80730126953125 3.604602637609233 Q 0.83280126953125 3.6148026376092326 0.8529012695312499 3.634302637609233 Q 0.8730012695312499 3.6538026376092327 0.8850012695312499 3.6811026376092326 Q 0.8970012695312499 3.7084026376092325 0.89760126953125 3.742002637609233 Q 0.8970012695312499 3.7516026376092326 0.88980126953125 3.758202637609233 Q 0.88260126953125 3.7648026376092325 0.8730012695312499 3.7648026376092325 L 0.63600126953125 3.7648026376092325 L 0.62520126953125 3.7234026376092326 L 0.85620126953125 3.7234026376092326 L 0.8466012695312499 3.7318026376092326 L 0.8466012695312499 3.7186026376092327 Q 0.8448012695312499 3.6940026376092328 0.83070126953125 3.6763026376092327 Q 0.81660126953125 3.6586026376092327 0.7962012695312499 3.649002637609233 Q 0.77580126953125 3.6394026376092325 0.75360126953125 3.6394026376092325 Q 0.7356012695312499 3.6394026376092325 0.71790126953125 3.6457026376092325 Q 0.70020126953125 3.6520026376092325 0.68610126953125 3.6661026376092325 Q 0.67200126953125 3.6802026376092325 0.66360126953125 3.7024026376092327 Q 0.65520126953125 3.7246026376092325 0.65520126953125 3.7558026376092326 Q 0.65520126953125 3.7906026376092328 0.66930126953125 3.8170026376092325 Q 0.68340126953125 3.8434026376092327 0.70860126953125 3.8587026376092326 Q 0.73380126953125 3.8740026376092325 0.76680126953125 3.8740026376092325 Q 0.78840126953125 3.8740026376092325 0.80400126953125 3.8686026376092326 Q 0.81960126953125 3.8632026376092328 0.83070126953125 3.8551026376092326 Q 0.84180126953125 3.847002637609233 0.84960126953125 3.838602637609233 Q 0.85740126953125 3.8332026376092325 0.86520126953125 3.8332026376092325 Q 0.8736012695312501 3.8332026376092325 0.87960126953125 3.8392026376092327 Q 0.88560126953125 3.8452026376092325 0.88560126953125 3.8536026376092325 Q 0.88560126953125 3.8638026376092327 0.87600126953125 3.8716026376092327 Q 0.8586012695312499 3.8902026376092325 0.83010126953125 3.9043026376092325 Q 0.80160126953125 3.9184026376092325 0.76860126953125 3.9184026376092325 M 1.1208167968749998 3.5944026376092326 Q 1.161616796875 3.5944026376092326 1.1850167968749998 3.6112026376092325 Q 1.208416796875 3.6280026376092325 1.218316796875 3.6562026376092325 Q 1.228216796875 3.6844026376092325 1.228216796875 3.7192026376092326 L 1.228216796875 3.8878026376092327 Q 1.228216796875 3.8980026376092325 1.2213167968749998 3.9052026376092326 Q 1.214416796875 3.9124026376092327 1.204216796875 3.9124026376092327 Q 1.194016796875 3.9124026376092327 1.1871167968749998 3.9052026376092326 Q 1.180216796875 3.8980026376092325 1.180216796875 3.8878026376092327 L 1.180216796875 3.7204026376092325 Q 1.180216796875 3.697602637609233 1.173316796875 3.679302637609233 Q 1.1664167968749999 3.661002637609233 1.1505167968749999 3.649902637609233 Q 1.1346167968749998 3.6388026376092326 1.107016796875 3.6388026376092326 Q 1.0818167968749999 3.6388026376092326 1.060816796875 3.649902637609233 Q 1.0398167968749998 3.661002637609233 1.027216796875 3.679302637609233 Q 1.014616796875 3.697602637609233 1.014616796875 3.7204026376092325 L 1.014616796875 3.8878026376092327 Q 1.014616796875 3.8980026376092325 1.0077167968749998 3.9052026376092326 Q 1.000816796875 3.9124026376092327 0.9906167968749999 3.9124026376092327 Q 0.9804167968749999 3.9124026376092327 0.9735167968749999 3.9052026376092326 Q 0.9666167968749999 3.8980026376092325 0.9666167968749999 3.8878026376092327 L 0.9666167968749999 3.6262026376092327 Q 0.9666167968749999 3.616002637609233 0.9735167968749999 3.6091026376092326 Q 0.9804167968749999 3.6022026376092326 0.9906167968749999 3.6022026376092326 Q 1.0014167968749998 3.6022026376092326 1.0080167968749998 3.6091026376092326 Q 1.014616796875 3.616002637609233 1.014616796875 3.6262026376092327 L 1.014616796875 3.668802637609233 L 1.002616796875 3.6820026376092327 Q 1.0056167968749998 3.6664026376092327 1.016416796875 3.650502637609233 Q 1.027216796875 3.6346026376092326 1.0434167968749999 3.6220026376092327 Q 1.0596167968749999 3.6094026376092327 1.079416796875 3.601902637609233 Q 1.099216796875 3.5944026376092326 1.1208167968749998 3.5944026376092326 M 1.3050074218749999 3.604002637609233 L 1.4460074218749999 3.604002637609233 Q 1.455607421875 3.604002637609233 1.461907421875 3.6106026376092326 Q 1.4682074218749999 3.6172026376092328 1.4682074218749999 3.6262026376092327 Q 1.4682074218749999 3.635802637609233 1.461907421875 3.6421026376092325 Q 1.455607421875 3.648402637609233 1.4460074218749999 3.648402637609233 L 1.3050074218749999 3.648402637609233 Q 1.296007421875 3.648402637609233 1.2894074218749998 3.6418026376092327 Q 1.2828074218749999 3.6352026376092326 1.2828074218749999 3.6256026376092327 Q 1.2828074218749999 3.616602637609233 1.2894074218749998 3.610302637609233 Q 1.296007421875 3.604002637609233 1.3050074218749999 3.604002637609233 M 1.3680074218749998 3.5224026376092326 Q 1.3782074218749998 3.5224026376092326 1.384807421875 3.529302637609233 Q 1.3914074218749999 3.536202637609233 1.3914074218749999 3.5464026376092326 L 1.3914074218749999 3.8362026376092326 Q 1.3914074218749999 3.850602637609233 1.3956074218749999 3.8578026376092325 Q 1.3998074218749998 3.8650026376092326 1.4067074218749998 3.8677026376092325 Q 1.4136074218749999 3.870402637609233 1.4202074218749998 3.870402637609233 Q 1.4262074218749998 3.870402637609233 1.4307074218749998 3.868302637609233 Q 1.435207421875 3.866202637609233 1.4412074218749997 3.866202637609233 Q 1.447207421875 3.866202637609233 1.4523074218749998 3.8719026376092325 Q 1.457407421875 3.8776026376092325 1.457407421875 3.886602637609233 Q 1.457407421875 3.8974026376092326 1.4448074218749998 3.904902637609233 Q 1.4322074218749998 3.9124026376092327 1.4166074218749998 3.9124026376092327 Q 1.4082074218749998 3.9124026376092327 1.3959074218749998 3.911202637609233 Q 1.3836074218749999 3.9100026376092325 1.3716074218749998 3.903402637609233 Q 1.3596074218749998 3.8968026376092326 1.3515074218749998 3.8815026376092328 Q 1.3434074218749998 3.866202637609233 1.3434074218749998 3.838602637609233 L 1.3434074218749998 3.5464026376092326 Q 1.3434074218749998 3.536202637609233 1.350607421875 3.529302637609233 Q 1.3578074218749998 3.5224026376092326 1.3680074218749998 3.5224026376092326 M 1.5294047851562498 3.8632026376092328 Q 1.52400478515625 3.8554026376092327 1.5246047851562499 3.8467026376092326 Q 1.5252047851562498 3.838002637609233 1.5348047851562499 3.8314026376092327 Q 1.5408047851562499 3.8272026376092327 1.5489047851562499 3.8278026376092327 Q 1.5570047851562498 3.8284026376092326 1.5636047851562498 3.8356026376092327 Q 1.58040478515625 3.8554026376092327 1.6020047851562498 3.8671026376092326 Q 1.6236047851562498 3.878802637609233 1.6548047851562497 3.878802637609233 Q 1.66920478515625 3.878202637609233 1.68360478515625 3.8740026376092325 Q 1.6980047851562499 3.8698026376092325 1.7079047851562499 3.8593026376092325 Q 1.71780478515625 3.8488026376092326 1.71780478515625 3.8314026376092327 Q 1.71780478515625 3.814602637609233 1.70760478515625 3.8047026376092328 Q 1.69740478515625 3.7948026376092328 1.68120478515625 3.788502637609233 Q 1.66500478515625 3.782202637609233 1.6458047851562498 3.777402637609233 Q 1.6260047851562498 3.7720026376092326 1.60680478515625 3.7651026376092327 Q 1.5876047851562498 3.758202637609233 1.57230478515625 3.747702637609233 Q 1.5570047851562498 3.737202637609233 1.5477047851562498 3.7213026376092326 Q 1.53840478515625 3.705402637609233 1.53840478515625 3.6826026376092327 Q 1.53840478515625 3.6556026376092325 1.5531047851562498 3.635802637609233 Q 1.5678047851562498 3.616002637609233 1.59270478515625 3.6052026376092328 Q 1.6176047851562498 3.5944026376092326 1.64700478515625 3.5944026376092326 Q 1.6638047851562499 3.5944026376092326 1.6821047851562498 3.598302637609233 Q 1.7004047851562498 3.6022026376092326 1.71780478515625 3.6115026376092327 Q 1.7352047851562498 3.620802637609233 1.7484047851562499 3.637002637609233 Q 1.75380478515625 3.6430026376092326 1.7544047851562499 3.6520026376092325 Q 1.7550047851562498 3.661002637609233 1.7466047851562498 3.668202637609233 Q 1.74000478515625 3.673002637609233 1.73190478515625 3.672402637609233 Q 1.72380478515625 3.6718026376092325 1.7184047851562498 3.6664026376092327 Q 1.70580478515625 3.6514026376092326 1.68690478515625 3.643302637609233 Q 1.6680047851562498 3.6352026376092326 1.64520478515625 3.6352026376092326 Q 1.63080478515625 3.6352026376092326 1.61700478515625 3.6394026376092325 Q 1.6032047851562499 3.6436026376092325 1.5939047851562498 3.6535026376092326 Q 1.58460478515625 3.6634026376092326 1.58460478515625 3.680802637609233 Q 1.5852047851562499 3.697002637609233 1.5954047851562498 3.7072026376092326 Q 1.6056047851562498 3.717402637609233 1.62300478515625 3.723702637609233 Q 1.6404047851562498 3.730002637609233 1.66140478515625 3.7360026376092326 Q 1.6806047851562498 3.7408026376092325 1.6983047851562498 3.747102637609233 Q 1.7160047851562499 3.753402637609233 1.7304047851562498 3.7636026376092326 Q 1.7448047851562498 3.773802637609233 1.7532047851562498 3.7897026376092326 Q 1.76160478515625 3.805602637609233 1.76160478515625 3.8296026376092325 Q 1.76160478515625 3.8572026376092325 1.74600478515625 3.8773026376092328 Q 1.7304047851562498 3.8974026376092326 1.7049047851562498 3.9079026376092325 Q 1.67940478515625 3.9184026376092325 1.6500047851562498 3.9184026376092325 Q 1.61700478515625 3.9184026376092325 1.5849047851562499 3.9058026376092325 Q 1.5528047851562499 3.8932026376092326 1.5294047851562498 3.8632026376092328 M 2.12581884765625 3.4696026376092326 Q 2.1360188476562496 3.4696026376092326 2.1471188476562495 3.472002637609233 Q 2.15821884765625 3.4744026376092325 2.1663188476562496 3.4804026376092327 Q 2.17441884765625 3.4864026376092325 2.17441884765625 3.4966026376092327 Q 2.17441884765625 3.5062026376092326 2.1684188476562496 3.5125026376092325 Q 2.16241884765625 3.518802637609233 2.15401884765625 3.518802637609233 Q 2.1486188476562496 3.518802637609233 2.1390188476562497 3.5155026376092327 Q 2.1294188476562494 3.512202637609233 2.1192188476562497 3.512202637609233 Q 2.10541884765625 3.512202637609233 2.0967188476562497 3.5182026376092326 Q 2.0880188476562496 3.524202637609233 2.0841188476562498 3.534102637609233 Q 2.0802188476562495 3.544002637609233 2.0802188476562495 3.556002637609233 L 2.0802188476562495 3.8878026376092327 Q 2.0802188476562495 3.8980026376092325 2.0733188476562496 3.9052026376092326 Q 2.0664188476562497 3.9124026376092327 2.0562188476562495 3.9124026376092327 Q 2.04541884765625 3.9124026376092327 2.0388188476562497 3.9052026376092326 Q 2.0322188476562495 3.8980026376092325 2.0322188476562495 3.8878026376092327 L 2.0322188476562495 3.556602637609233 Q 2.0322188476562495 3.5164026376092328 2.0571188476562496 3.4930026376092327 Q 2.08201884765625 3.4696026376092326 2.12581884765625 3.4696026376092326 M 2.1426188476562498 3.6070026376092326 Q 2.1522188476562496 3.6070026376092326 2.1588188476562498 3.6133026376092325 Q 2.1654188476562495 3.6196026376092325 2.1654188476562495 3.629202637609233 Q 2.1654188476562495 3.6388026376092326 2.1588188476562498 3.6451026376092326 Q 2.1522188476562496 3.6514026376092326 2.1426188476562498 3.6514026376092326 L 1.9920188476562497 3.6514026376092326 Q 1.9824188476562496 3.6514026376092326 1.9758188476562497 3.644802637609233 Q 1.9692188476562498 3.6382026376092327 1.9692188476562498 3.629202637609233 Q 1.9692188476562498 3.6190026376092326 1.9758188476562497 3.613002637609233 Q 1.9824188476562496 3.6070026376092326 1.9920188476562497 3.6070026376092326 L 2.1426188476562498 3.6070026376092326 M 2.5128188476562494 3.7564026376092325 Q 2.5128188476562494 3.8032026376092327 2.4924188476562494 3.8398026376092327 Q 2.4720188476562495 3.8764026376092326 2.4369188476562496 3.8974026376092326 Q 2.4018188476562496 3.9184026376092325 2.3574188476562496 3.9184026376092325 Q 2.3136188476562496 3.9184026376092325 2.2785188476562497 3.8974026376092326 Q 2.2434188476562493 3.8764026376092326 2.2227188476562496 3.8398026376092327 Q 2.2020188476562494 3.8032026376092327 2.2020188476562494 3.7564026376092325 Q 2.2020188476562494 3.709602637609233 2.2227188476562496 3.673002637609233 Q 2.2434188476562493 3.636402637609233 2.2785188476562497 3.6154026376092325 Q 2.3136188476562496 3.5944026376092326 2.3574188476562496 3.5944026376092326 Q 2.4018188476562496 3.5944026376092326 2.4369188476562496 3.6154026376092325 Q 2.4720188476562495 3.636402637609233 2.4924188476562494 3.673002637609233 Q 2.5128188476562494 3.709602637609233 2.5128188476562494 3.7564026376092325 M 2.4648188476562494 3.7564026376092325 Q 2.4648188476562494 3.721602637609233 2.4507188476562494 3.6952026376092326 Q 2.4366188476562494 3.668802637609233 2.4123188476562496 3.6538026376092327 Q 2.3880188476562494 3.6388026376092326 2.3574188476562496 3.6388026376092326 Q 2.3274188476562494 3.6388026376092326 2.3028188476562494 3.6538026376092327 Q 2.2782188476562495 3.668802637609233 2.2641188476562495 3.6952026376092326 Q 2.2500188476562495 3.721602637609233 2.2500188476562495 3.7564026376092325 Q 2.2500188476562495 3.7906026376092328 2.2641188476562495 3.8170026376092325 Q 2.2782188476562495 3.8434026376092327 2.3028188476562494 3.8587026376092326 Q 2.3274188476562494 3.8740026376092325 2.3574188476562496 3.8740026376092325 Q 2.3880188476562494 3.8740026376092325 2.4123188476562496 3.8587026376092326 Q 2.4366188476562494 3.8434026376092327 2.4507188476562494 3.8170026376092325 Q 2.4648188476562494 3.7906026376092328 2.4648188476562494 3.7564026376092325 M 2.8146126953124995 3.6022026376092326 Q 2.8254126953124996 3.6022026376092326 2.8320126953124998 3.6091026376092326 Q 2.8386126953124995 3.616002637609233 2.8386126953124995 3.6262026376092327 L 2.8386126953124995 3.790002637609233 Q 2.8386126953124995 3.850602637609233 2.8047126953125 3.8839026376092325 Q 2.7708126953125 3.9172026376092326 2.7102126953125 3.9172026376092326 Q 2.6502126953125 3.9172026376092326 2.6163126953124998 3.8839026376092325 Q 2.5824126953124997 3.850602637609233 2.5824126953124997 3.790002637609233 L 2.5824126953124997 3.6262026376092327 Q 2.5824126953124997 3.616002637609233 2.5893126953124996 3.6091026376092326 Q 2.5962126953124995 3.6022026376092326 2.6064126953124997 3.6022026376092326 Q 2.6172126953125 3.6022026376092326 2.6238126953124996 3.6091026376092326 Q 2.6304126953124998 3.616002637609233 2.6304126953124998 3.6262026376092327 L 2.6304126953124998 3.790002637609233 Q 2.6304126953124998 3.830802637609233 2.6514126953124997 3.8518026376092327 Q 2.6724126953124996 3.8728026376092326 2.7102126953125 3.8728026376092326 Q 2.7492126953124996 3.8728026376092326 2.7699126953124997 3.8518026376092327 Q 2.7906126953125 3.830802637609233 2.7906126953125 3.790002637609233 L 2.7906126953125 3.6262026376092327 Q 2.7906126953125 3.616002637609233 2.7975126953125 3.6091026376092326 Q 2.8044126953124997 3.6022026376092326 2.8146126953124995 3.6022026376092326 M 3.0816200195312495 3.5944026376092326 Q 3.1224200195312495 3.5944026376092326 3.1458200195312496 3.6112026376092325 Q 3.1692200195312497 3.6280026376092325 3.1791200195312497 3.6562026376092325 Q 3.1890200195312497 3.6844026376092325 3.1890200195312497 3.7192026376092326 L 3.1890200195312497 3.8878026376092327 Q 3.1890200195312497 3.8980026376092325 3.18212001953125 3.9052026376092326 Q 3.1752200195312494 3.9124026376092327 3.1650200195312497 3.9124026376092327 Q 3.1548200195312495 3.9124026376092327 3.1479200195312496 3.9052026376092326 Q 3.1410200195312497 3.8980026376092325 3.1410200195312497 3.8878026376092327 L 3.1410200195312497 3.7204026376092325 Q 3.1410200195312497 3.697602637609233 3.1341200195312497 3.679302637609233 Q 3.12722001953125 3.661002637609233 3.1113200195312496 3.649902637609233 Q 3.09542001953125 3.6388026376092326 3.0678200195312497 3.6388026376092326 Q 3.04262001953125 3.6388026376092326 3.0216200195312495 3.649902637609233 Q 3.0006200195312496 3.661002637609233 2.9880200195312496 3.679302637609233 Q 2.9754200195312497 3.697602637609233 2.9754200195312497 3.7204026376092325 L 2.9754200195312497 3.8878026376092327 Q 2.9754200195312497 3.8980026376092325 2.9685200195312498 3.9052026376092326 Q 2.9616200195312494 3.9124026376092327 2.9514200195312497 3.9124026376092327 Q 2.9412200195312495 3.9124026376092327 2.9343200195312495 3.9052026376092326 Q 2.9274200195312496 3.8980026376092325 2.9274200195312496 3.8878026376092327 L 2.9274200195312496 3.6262026376092327 Q 2.9274200195312496 3.616002637609233 2.9343200195312495 3.6091026376092326 Q 2.9412200195312495 3.6022026376092326 2.9514200195312497 3.6022026376092326 Q 2.96222001953125 3.6022026376092326 2.9688200195312495 3.6091026376092326 Q 2.9754200195312497 3.616002637609233 2.9754200195312497 3.6262026376092327 L 2.9754200195312497 3.668802637609233 L 2.9634200195312497 3.6820026376092327 Q 2.96642001953125 3.6664026376092327 2.9772200195312495 3.650502637609233 Q 2.9880200195312496 3.6346026376092326 3.0042200195312496 3.6220026376092327 Q 3.0204200195312496 3.6094026376092327 3.0402200195312497 3.601902637609233 Q 3.0600200195312497 3.5944026376092326 3.0816200195312495 3.5944026376092326 M 3.53041064453125 3.4684026376092327 Q 3.5412106445312497 3.4684026376092327 3.54781064453125 3.4753026376092326 Q 3.5544106445312496 3.4822026376092325 3.5544106445312496 3.4924026376092328 L 3.5544106445312496 3.8878026376092327 Q 3.5544106445312496 3.8980026376092325 3.5475106445312496 3.9052026376092326 Q 3.5406106445312497 3.9124026376092327 3.53041064453125 3.9124026376092327 Q 3.5202106445312498 3.9124026376092327 3.51331064453125 3.9052026376092326 Q 3.50641064453125 3.8980026376092325 3.50641064453125 3.8878026376092327 L 3.50641064453125 3.830802637609233 L 3.5178106445312496 3.826602637609233 Q 3.5178106445312496 3.8410026376092326 3.50911064453125 3.856902637609233 Q 3.5004106445312497 3.8728026376092326 3.48451064453125 3.886602637609233 Q 3.4686106445312497 3.9004026376092327 3.4476106445312498 3.9094026376092326 Q 3.42661064453125 3.9184026376092325 3.40201064453125 3.9184026376092325 Q 3.36121064453125 3.9184026376092325 3.32881064453125 3.8974026376092326 Q 3.29641064453125 3.8764026376092326 3.2775106445312496 3.8398026376092327 Q 3.2586106445312497 3.8032026376092327 3.2586106445312497 3.7564026376092325 Q 3.2586106445312497 3.709002637609233 3.2775106445312496 3.672402637609233 Q 3.29641064453125 3.635802637609233 3.32851064453125 3.615102637609233 Q 3.36061064453125 3.5944026376092326 3.4008106445312496 3.5944026376092326 Q 3.42601064453125 3.5944026376092326 3.44791064453125 3.6028026376092326 Q 3.46981064453125 3.6112026376092325 3.48661064453125 3.6256026376092327 Q 3.50341064453125 3.640002637609233 3.51271064453125 3.657402637609233 Q 3.5220106445312496 3.6748026376092326 3.5220106445312496 3.6922026376092325 L 3.50641064453125 3.688602637609233 L 3.50641064453125 3.4924026376092328 Q 3.50641064453125 3.4822026376092325 3.51331064453125 3.4753026376092326 Q 3.5202106445312498 3.4684026376092327 3.53041064453125 3.4684026376092327 M 3.40681064453125 3.8740026376092325 Q 3.43741064453125 3.8740026376092325 3.4602106445312497 3.8587026376092326 Q 3.48301064453125 3.8434026376092327 3.4962106445312497 3.816702637609233 Q 3.5094106445312496 3.790002637609233 3.5094106445312496 3.7564026376092325 Q 3.5094106445312496 3.7222026376092328 3.4962106445312497 3.6958026376092326 Q 3.48301064453125 3.669402637609233 3.45991064453125 3.654102637609233 Q 3.4368106445312496 3.6388026376092326 3.40681064453125 3.6388026376092326 Q 3.37741064453125 3.6388026376092326 3.3543106445312496 3.654102637609233 Q 3.3312106445312497 3.669402637609233 3.31801064453125 3.6958026376092326 Q 3.30481064453125 3.7222026376092328 3.30481064453125 3.7564026376092325 Q 3.30481064453125 3.789402637609233 3.31801064453125 3.816102637609233 Q 3.3312106445312497 3.842802637609233 3.3543106445312496 3.858402637609233 Q 3.37741064453125 3.8740026376092325 3.40681064453125 3.8740026376092325 M 3.95823056640625 3.5974026376092327 Q 3.99783056640625 3.5974026376092327 4.02093056640625 3.614502637609233 Q 4.04403056640625 3.6316026376092325 4.05393056640625 3.6601026376092327 Q 4.06383056640625 3.688602637609233 4.06383056640625 3.7234026376092326 L 4.06383056640625 3.8878026376092327 Q 4.06383056640625 3.8980026376092325 4.05693056640625 3.9052026376092326 Q 4.0500305664062495 3.9124026376092327 4.03983056640625 3.9124026376092327 Q 4.02963056640625 3.9124026376092327 4.02273056640625 3.9052026376092326 Q 4.01583056640625 3.8980026376092325 4.01583056640625 3.8878026376092327 L 4.01583056640625 3.7234026376092326 Q 4.01583056640625 3.700602637609233 4.0092305664062495 3.682302637609233 Q 4.00263056640625 3.6640026376092325 3.98733056640625 3.6529026376092326 Q 3.97203056640625 3.6418026376092327 3.94563056640625 3.6418026376092327 Q 3.92103056640625 3.6418026376092327 3.90063056640625 3.6529026376092326 Q 3.88023056640625 3.6640026376092325 3.86823056640625 3.682302637609233 Q 3.85623056640625 3.700602637609233 3.85623056640625 3.7234026376092326 L 3.85623056640625 3.8878026376092327 Q 3.85623056640625 3.8980026376092325 3.84933056640625 3.9052026376092326 Q 3.8424305664062497 3.9124026376092327 3.83223056640625 3.9124026376092327 Q 3.8220305664062497 3.9124026376092327 3.81513056640625 3.9052026376092326 Q 3.80823056640625 3.8980026376092325 3.80823056640625 3.8878026376092327 L 3.80823056640625 3.4924026376092328 Q 3.80823056640625 3.4822026376092325 3.81513056640625 3.4753026376092326 Q 3.8220305664062497 3.4684026376092327 3.83223056640625 3.4684026376092327 Q 3.84303056640625 3.4684026376092327 3.84963056640625 3.4753026376092326 Q 3.85623056640625 3.4822026376092325 3.85623056640625 3.4924026376092328 L 3.85623056640625 3.6718026376092325 L 3.84423056640625 3.685002637609233 Q 3.84723056640625 3.669402637609233 3.85743056640625 3.6535026376092326 Q 3.86763056640625 3.6376026376092327 3.88323056640625 3.625002637609233 Q 3.8988305664062497 3.612402637609233 3.91803056640625 3.6049026376092326 Q 3.93723056640625 3.5974026376092327 3.95823056640625 3.5974026376092327 M 4.29301533203125 3.9184026376092325 Q 4.24501533203125 3.9184026376092325 4.20901533203125 3.8980026376092325 Q 4.17301533203125 3.8776026376092325 4.15321533203125 3.8419026376092327 Q 4.13341533203125 3.806202637609233 4.13341533203125 3.7594026376092327 Q 4.13341533203125 3.7072026376092326 4.15411533203125 3.6703026376092325 Q 4.17481533203125 3.6334026376092328 4.20781533203125 3.6139026376092325 Q 4.24081533203125 3.5944026376092326 4.27801533203125 3.5944026376092326 Q 4.30621533203125 3.5944026376092326 4.33171533203125 3.604602637609233 Q 4.35721533203125 3.6148026376092326 4.37731533203125 3.634302637609233 Q 4.39741533203125 3.6538026376092327 4.40941533203125 3.6811026376092326 Q 4.42141533203125 3.7084026376092325 4.42201533203125 3.742002637609233 Q 4.42141533203125 3.7516026376092326 4.41421533203125 3.758202637609233 Q 4.40701533203125 3.7648026376092325 4.39741533203125 3.7648026376092325 L 4.16041533203125 3.7648026376092325 L 4.14961533203125 3.7234026376092326 L 4.38061533203125 3.7234026376092326 L 4.37101533203125 3.7318026376092326 L 4.37101533203125 3.7186026376092327 Q 4.36921533203125 3.6940026376092328 4.35511533203125 3.6763026376092327 Q 4.34101533203125 3.6586026376092327 4.32061533203125 3.649002637609233 Q 4.30021533203125 3.6394026376092325 4.27801533203125 3.6394026376092325 Q 4.26001533203125 3.6394026376092325 4.24231533203125 3.6457026376092325 Q 4.22461533203125 3.6520026376092325 4.21051533203125 3.6661026376092325 Q 4.19641533203125 3.6802026376092325 4.18801533203125 3.7024026376092327 Q 4.17961533203125 3.7246026376092325 4.17961533203125 3.7558026376092326 Q 4.17961533203125 3.7906026376092328 4.19371533203125 3.8170026376092325 Q 4.20781533203125 3.8434026376092327 4.23301533203125 3.8587026376092326 Q 4.25821533203125 3.8740026376092325 4.29121533203125 3.8740026376092325 Q 4.31281533203125 3.8740026376092325 4.32841533203125 3.8686026376092326 Q 4.34401533203125 3.8632026376092328 4.35511533203125 3.8551026376092326 Q 4.36621533203125 3.847002637609233 4.37401533203125 3.838602637609233 Q 4.38181533203125 3.8332026376092325 4.38961533203125 3.8332026376092325 Q 4.39801533203125 3.8332026376092325 4.40401533203125 3.8392026376092327 Q 4.41001533203125 3.8452026376092325 4.41001533203125 3.8536026376092325 Q 4.41001533203125 3.8638026376092327 4.40041533203125 3.8716026376092327 Q 4.38301533203125 3.8902026376092325 4.35451533203125 3.9043026376092325 Q 4.32601533203125 3.9184026376092325 4.29301533203125 3.9184026376092325 M 4.515030859375 3.9124026376092327 Q 4.504830859375001 3.9124026376092327 4.497930859375001 3.9052026376092326 Q 4.491030859375 3.8980026376092325 4.491030859375 3.8878026376092327 L 4.491030859375 3.6262026376092327 Q 4.491030859375 3.616002637609233 4.497930859375001 3.6091026376092326 Q 4.504830859375001 3.6022026376092326 4.515030859375 3.6022026376092326 Q 4.5258308593750005 3.6022026376092326 4.532430859375 3.6091026376092326 Q 4.539030859375 3.616002637609233 4.539030859375 3.6262026376092327 L 4.539030859375 3.705402637609233 L 4.531830859375001 3.692802637609233 Q 4.535430859375 3.6742026376092327 4.544730859375 3.6565026376092327 Q 4.5540308593750005 3.6388026376092326 4.568430859375001 3.6247026376092326 Q 4.582830859375 3.6106026376092326 4.601430859375 3.602502637609233 Q 4.620030859375 3.5944026376092326 4.642230859375 3.5944026376092326 Q 4.6554308593750005 3.5944026376092326 4.666530859375 3.6007026376092326 Q 4.677630859375 3.6070026376092326 4.677630859375 3.6184026376092326 Q 4.677630859375 3.6310026376092326 4.6710308593750005 3.637002637609233 Q 4.664430859375001 3.6430026376092326 4.656030859375 3.6430026376092326 Q 4.648230859375 3.6430026376092326 4.641030859375 3.6397026376092327 Q 4.633830859375 3.636402637609233 4.6230308593750005 3.636402637609233 Q 4.608030859375001 3.636402637609233 4.593330859375 3.6445026376092327 Q 4.578630859375 3.652602637609233 4.566330859375 3.6676026376092326 Q 4.5540308593750005 3.6826026376092327 4.546530859375 3.7015026376092326 Q 4.539030859375 3.7204026376092325 4.539030859375 3.742002637609233 L 4.539030859375 3.8878026376092327 Q 4.539030859375 3.8980026376092325 4.532130859375 3.9052026376092326 Q 4.525230859375 3.9124026376092327 4.515030859375 3.9124026376092327 M 4.8588478515625 3.9184026376092325 Q 4.8108478515625 3.9184026376092325 4.7748478515625 3.8980026376092325 Q 4.7388478515625 3.8776026376092325 4.7190478515625 3.8419026376092327 Q 4.6992478515625 3.806202637609233 4.6992478515625 3.7594026376092327 Q 4.6992478515625 3.7072026376092326 4.7199478515625 3.6703026376092325 Q 4.740647851562501 3.6334026376092328 4.7736478515625 3.6139026376092325 Q 4.8066478515625 3.5944026376092326 4.843847851562501 3.5944026376092326 Q 4.872047851562501 3.5944026376092326 4.8975478515625 3.604602637609233 Q 4.9230478515625 3.6148026376092326 4.9431478515625 3.634302637609233 Q 4.9632478515625005 3.6538026376092327 4.9752478515625 3.6811026376092326 Q 4.9872478515625005 3.7084026376092325 4.9878478515625 3.742002637609233 Q 4.9872478515625005 3.7516026376092326 4.9800478515625 3.758202637609233 Q 4.9728478515625 3.7648026376092325 4.9632478515625005 3.7648026376092325 L 4.7262478515625 3.7648026376092325 L 4.715447851562501 3.7234026376092326 L 4.9464478515625006 3.7234026376092326 L 4.936847851562501 3.7318026376092326 L 4.936847851562501 3.7186026376092327 Q 4.9350478515625005 3.6940026376092328 4.9209478515625005 3.6763026376092327 Q 4.9068478515625005 3.6586026376092327 4.8864478515625 3.649002637609233 Q 4.8660478515625005 3.6394026376092325 4.843847851562501 3.6394026376092325 Q 4.8258478515625 3.6394026376092325 4.8081478515625005 3.6457026376092325 Q 4.7904478515625 3.6520026376092325 4.7763478515625 3.6661026376092325 Q 4.7622478515625 3.6802026376092325 4.7538478515625 3.7024026376092327 Q 4.7454478515625 3.7246026376092325 4.7454478515625 3.7558026376092326 Q 4.7454478515625 3.7906026376092328 4.7595478515625 3.8170026376092325 Q 4.7736478515625 3.8434026376092327 4.7988478515625 3.8587026376092326 Q 4.824047851562501 3.8740026376092325 4.8570478515625 3.8740026376092325 Q 4.8786478515625005 3.8740026376092325 4.8942478515625005 3.8686026376092326 Q 4.909847851562501 3.8632026376092328 4.9209478515625005 3.8551026376092326 Q 4.9320478515625 3.847002637609233 4.9398478515625 3.838602637609233 Q 4.9476478515625 3.8332026376092325 4.9554478515625 3.8332026376092325 Q 4.9638478515625 3.8332026376092325 4.9698478515625 3.8392026376092327 Q 4.9758478515625 3.8452026376092325 4.9758478515625 3.8536026376092325 Q 4.9758478515625 3.8638026376092327 4.966247851562501 3.8716026376092327 Q 4.9488478515625 3.8902026376092325 4.9203478515625 3.9043026376092325 Q 4.891847851562501 3.9184026376092325 4.8588478515625 3.9184026376092325" fill="#67a97b" fill-rule="nonzero"></path></g></g><defs><clipPath id="SvgjsClipPath34913"><path d=" M -1.1 -2.2684026376092326 h 5.74302978515625 v 5.236805275218465 h -5.74302978515625 Z"></path></clipPath></defs></svg>